#!OML:ASF F:\VICON\USERDATA\INSTALL\rory3\rory3.ASF
:FULLY-SPECIFIED
:DEGREES
474
root 0.315679 15.5582 -3.91262 -23.816 -40.2743 4.77563
lowerback 19.6081 2.96194 -2.80391
upperback 10.7059 3.12058 1.74639
thorax 0.350561 1.26354 2.84516
lowerneck -24.4583 2.25445 -7.04404
upperneck 18.2331 4.55705 4.43733
head 9.49803 2.14792 3.37817
rclavicle -1.73937e-014 -4.77083e-015
rhumerus -29.4975 12.4227 -83.3889
rradius 82.7131
rwrist 30.5244
rhand -33.6578 26.0391
rfingers 7.12502
rthumb -6.8492 -3.83008
lclavicle -1.73937e-014 -4.77083e-015
lhumerus -28.9833 -10.883 93.6046
lradius 78.2858
lwrist -20.0711
lhand -32.0738 10.4634
lfingers 7.12502
lthumb -5.31999 40.3766
rfemur -67.5343 -31.0099 26.0795
rtibia 141.879
rfoot -12.5774 -0.484864
rtoes 6.34935
lfemur -74.6666 52.6135 -28.6253
ltibia 143.382
lfoot -11.9206 -2.00294
ltoes -1.81983
475
root 0.311604 15.5595 -3.90607 -23.7023 -40.3143 4.55306
lowerback 19.6689 2.94457 -2.58505
upperback 10.6658 3.13491 1.81766
thorax 0.281132 1.27981 2.79125
lowerneck -24.4386 2.38936 -6.89141
upperneck 18.2131 4.68998 4.42234
head 9.48259 2.21944 3.36561
rclavicle -2.03754e-014 -1.19271e-014
rhumerus -29.3958 12.4273 -83.4815
rradius 82.3737
rwrist 30.5185
rhand -33.7703 26.1457
rfingers 7.12502
rthumb -6.95786 -3.71992
lclavicle -2.03754e-014 -1.19271e-014
lhumerus -29.3445 -10.2648 93.7785
lradius 78.6831
lwrist -20.3662
lhand -31.9031 10.255
lfingers 7.12502
lthumb -5.15521 40.1723
rfemur -67.4679 -30.719 26.3688
rtibia 141.79
rfoot -12.4456 -0.73315
rtoes 4.4285
lfemur -74.5185 53.0525 -28.2582
ltibia 143.454
lfoot -11.9537 -2.15147
ltoes -1.61746
476
root 0.305818 15.5582 -3.90095 -23.6787 -40.3312 4.41701
lowerback 19.7675 2.90734 -2.46349
upperback 10.6267 3.10512 1.85425
thorax 0.194443 1.2705 2.7629
lowerneck -24.3076 2.58372 -6.67586
upperneck 18.105 4.88841 4.34664
head 9.4163 2.32047 3.32466
rclavicle 2.61402e-014 -3.97569e-015
rhumerus -29.2776 12.6372 -83.6244
rradius 82.0252
rwrist 30.3935
rhand -34.0479 26.152
rfingers 7.12502
rthumb -7.22581 -3.70467
lclavicle 2.61402e-014 -3.97569e-015
lhumerus -29.5886 -9.87885 93.8572
lradius 78.8409
lwrist -20.3855
lhand -32.0455 10.5202
lfingers 7.12502
lthumb -5.29264 40.4341
rfemur -67.3345 -30.4329 26.5047
rtibia 141.762
rfoot -12.3461 -0.775125
rtoes 3.47542
lfemur -74.2956 53.4932 -27.8845
ltibia 143.511
lfoot -12.0417 -2.33841
ltoes -1.59211
477
root 0.300417 15.559 -3.89626 -23.6772 -40.2707 4.35545
lowerback 19.851 2.83351 -2.41993
upperback 10.5604 3.01635 1.87998
thorax 0.0868749 1.22975 2.77879
lowerneck -24.1636 2.76906 -6.56994
upperneck 18.0327 5.09077 4.36584
head 9.35479 2.42636 3.33558
rclavicle -9.24349e-015 -4.77083e-015
rhumerus -29.1865 12.9407 -83.7529
rradius 81.6794
rwrist 30.2922
rhand -34.212 26.2231
rfingers 7.12502
rthumb -7.38421 -3.62808
lclavicle -9.24349e-015 -4.77083e-015
lhumerus -29.7979 -9.53098 93.9266
lradius 78.7508
lwrist -20.336
lhand -32.4661 10.6457
lfingers 7.12502
lthumb -5.69878 40.5491
rfemur -67.171 -30.3728 26.3688
rtibia 141.789
rfoot -12.2408 -0.294874
rtoes 4.40833
lfemur -74.1733 53.733 -27.7029
ltibia 143.505
lfoot -12.0062 -2.44991
ltoes -1.81222
478
root 0.295515 15.5612 -3.89072 -23.6105 -40.1837 4.33598
lowerback 19.8457 2.80102 -2.44649
upperback 10.4632 2.97599 1.95373
thorax -0.0181335 1.21088 2.87806
lowerneck -24.1631 2.87688 -6.6316
upperneck 18.1563 5.23647 4.4704
head 9.38338 2.4997 3.40588
rclavicle 3.35946e-014 3.97569e-014
rhumerus -29.14 13.2356 -83.7351
rradius 81.4353
rwrist 30.2024
rhand -34.3476 26.0899
rfingers 7.12502
rthumb -7.51509 -3.75656
lclavicle 3.35946e-014 3.97569e-014
lhumerus -29.955 -9.41346 94.0784
lradius 78.5491
lwrist -20.3263
lhand -32.8078 10.5761
lfingers 7.12502
lthumb -6.02864 40.4703
rfemur -67.1358 -30.3745 26.1853
rtibia 141.835
rfoot -12.0859 0.250442
rtoes 5.33518
lfemur -74.2089 53.8257 -27.703
ltibia 143.483
lfoot -11.9148 -2.57501
ltoes -1.88532
479
root 0.290826 15.5652 -3.88198 -23.5498 -40.0717 4.34024
lowerback 19.7831 2.78997 -2.49322
upperback 10.3816 2.96184 2.02149
thorax -0.0795334 1.2041 2.9794
lowerneck -24.186 2.98246 -6.6776
upperneck 18.2962 5.38499 4.53339
head 9.42324 2.56986 3.46087
rclavicle -3.11098e-014 -3.18055e-015
rhumerus -29.1027 13.4017 -83.6928
rradius 81.2897
rwrist 30.3098
rhand -34.3838 25.786
rfingers 7.12502
rthumb -7.55006 -4.05921
lclavicle -3.11098e-014 -3.18055e-015
lhumerus -29.9645 -9.65065 94.1711
lradius 78.2156
lwrist -20.2673
lhand -32.9961 10.7035
lfingers 7.12502
lthumb -6.21047 40.5925
rfemur -67.0487 -30.3594 26.0154
rtibia 141.839
rfoot -12.0257 0.505999
rtoes 5.0533
lfemur -74.0895 53.8242 -27.6703
ltibia 143.454
lfoot -11.9419 -2.72963
ltoes -1.8387
480
root 0.286285 15.5685 -3.87185 -23.5806 -39.9879 4.48303
lowerback 19.7193 2.78832 -2.58011
upperback 10.3128 2.95027 1.99217
thorax -0.123419 1.19909 3.0001
lowerneck -24.1282 3.09624 -6.60908
upperneck 18.3104 5.50267 4.57818
head 9.41063 2.63478 3.48025
rclavicle -9.96905e-014 2.3059e-014
rhumerus -29.0964 13.4646 -83.7661
rradius 81.2072
rwrist 30.5727
rhand -34.3488 25.6207
rfingers 7.12502
rthumb -7.51621 -4.22577
lclavicle -9.96905e-014 2.3059e-014
lhumerus -30.0274 -9.79392 94.1493
lradius 78.0088
lwrist -20.2736
lhand -33.0694 10.8425
lfingers 7.12502
lthumb -6.2812 40.7294
rfemur -66.9606 -30.3421 25.7694
rtibia 141.848
rfoot -11.9888 0.640954
rtoes 4.56731
lfemur -73.8969 53.9063 -27.7254
ltibia 143.446
lfoot -12.1046 -2.87028
ltoes -2.09288
